<svg xmlns="http://www.w3.org/2000/svg" width="1459.016" height="1124.884" viewBox="0 0 1459.016 1124.884">
  <g id="Image-BG-StrokeT" transform="translate(0.518 0.533)" opacity="0.156">
    <path id="Path_29" data-name="Path 29" d="M938.356,802.269c-296.151,210.1-631.575,280.3-796.372,177.11A215.212,215.212,0,0,1,92.559,937.3a210.918,210.918,0,0,1-32.421-50.764v-.044c-45.226-99.956-15.1-237.957,83.036-378.063H55.5L76.14,464.468s157.4-28.828,315.975-159.65c.376-.266,63.818-.421,63.818-.421L376.8,459.483H506.548L482,506.281l-127.531-.665c-108.9,193.729-94.4,255.151-75.6,303.146,50.49,129,323.558,92.887,592.7-98.028,269.141-191.07,392.327-456.192,275.262-592.266C1044.956.033,791.252,21.039,551.879,153.523,815.922.055,1092.25-42.932,1237.1,47.163A215.984,215.984,0,0,1,1287.045,89.6a199.469,199.469,0,0,1,35.178,59.029c65.134,170.662-90.786,445.667-383.866,653.666Z" transform="translate(47.017 -0.501)" fill="none" stroke="#d12426" stroke-miterlimit="10" stroke-width="1"/>
    <path id="Path_30" data-name="Path 30" d="M1277.787,15.36c22.1,9.262,42.874,28.274,58.164,45.978,16.526,19.167,24.778,40.106,33.638,63.151,70.229,183.558-97.9,479.37-413.978,703.079C636.22,1053.559,290.732,1094.13,122.334,979.595-9.62,889.854.539,677.845,106.374,527.147" transform="translate(29.5 17.564)" fill="none" stroke="#d12426" stroke-miterlimit="10" stroke-width="1" opacity="0.6"/>
    <path id="Path_31" data-name="Path 31" d="M1400.746,59.09c66.221,183.736-39.972,442.609-376.634,712.23-298.244,239.8-733.189,318.546-906.042,183.8C-22.177,845.816-.544,668.417,61.879,534.737" transform="translate(15.203 70.731)" fill="none" stroke="#d12426" stroke-miterlimit="10" stroke-width="1" opacity="0.4"/>
    <path id="Path_32" data-name="Path 32" d="M1458.5,117.51c-17.554,186.7-112.616,387.724-456.77,643.695C787.3,917.376,421.514,1051.832,170.993,942.082,9.711,871.442-34.9,672.528,27.643,538.848" transform="translate(-0.497 141.759)" fill="none" stroke="#d12426" stroke-miterlimit="10" stroke-width="1" opacity="0.2"/>
    <path id="Path_33" data-name="Path 33" d="M243.213,492.406c-103.368,164.945-94.305,257.345-54.088,295.523C273.835,860.7,528.012,825.421,821.43,608.071,1157.26,359.346,1224.266-67.066,667.52,46.672" transform="translate(149.249 32.651)" fill="none" stroke="#d12426" stroke-miterlimit="10" stroke-width="1" opacity="0.6"/>
    <path id="Path_34" data-name="Path 34" d="M230.507,528.629c-81.188,137.89-64.835,213.849-23.864,236.915,87.082,52.493,356.171-18.148,608.973-213.627,283.8-219.455,318.435-557.145-65.743-510.125" transform="translate(164.428 44.311)" fill="none" stroke="#d12426" stroke-miterlimit="10" stroke-width="1" opacity="0.4"/>
    <path id="Path_35" data-name="Path 35" d="M217.842,563.231c-53.335,83.293-39.885,150.255-2.194,171.482,61.445,42.854,320.806-24.374,553.378-204.188C1030.117,328.642,1080.416,38.7,804.768,47.61" transform="translate(177.23 56.53)" fill="none" stroke="#d12426" stroke-miterlimit="10" stroke-width="1" opacity="0.2"/>
    <path id="Path_36" data-name="Path 36" d="M56.12,295.256s190.693-44.25,326.5-167.826l112.541,2.393L418.207,281.629l119.1.908" transform="translate(67.13 153.82)" fill="none" stroke="#d12426" stroke-miterlimit="10" stroke-width="1" opacity="0.6"/>
    <path id="Path_37" data-name="Path 37" d="M66.53,279.948s169.488-37.292,305.3-160.868l136.893,3.479-68.2,143.851,107.179.82" transform="translate(79.787 143.668)" fill="none" stroke="#d12426" stroke-miterlimit="10" stroke-width="1" opacity="0.4"/>
    <path id="Path_38" data-name="Path 38" d="M78.74,264.678s140.04-30,275.847-153.578l160.669,8.176L457.4,255.172l94.217,2.814" transform="translate(94.632 133.966)" fill="none" stroke="#d12426" stroke-miterlimit="10" stroke-width="1" opacity="0.2"/>
  </g>
</svg>
